<svg xmlns="http://www.w3.org/2000/svg" xmlns:xlink="http://www.w3.org/1999/xlink" viewBox="0,0,256,256" width="384px" height="384px"><g fill="#9d0dff" fill-rule="nonzero" stroke="none" stroke-width="1" stroke-linecap="butt" stroke-linejoin="miter" stroke-miterlimit="10" stroke-dasharray="" stroke-dashoffset="0" font-family="none" font-weight="none" font-size="none" text-anchor="none" style="mix-blend-mode: normal"><path d="M128,256c-70.69245,0 -128,-57.30755 -128,-128v0c0,-70.69245 57.30755,-128 128,-128v0c70.69245,0 128,57.30755 128,128v0c0,70.69245 -57.30755,128 -128,128z" id="shape"></path></g><g fill="none" fill-rule="nonzero" stroke="none" stroke-width="1" stroke-linecap="butt" stroke-linejoin="none" stroke-miterlimit="10" stroke-dasharray="" stroke-dashoffset="0" font-family="none" font-weight="none" font-size="none" text-anchor="none" style="mix-blend-mode: normal"><path transform="scale(10.66667,10.66667)" d="M17.93164,6l3.24414,2.49414c0.165,0.126 0.17616,0.78909 0.03516,0.87109c-1.666,0.97 -3.347,1.87416 -5,2.91016c-0.041,0.026 -0.04372,0.17456 -0.01172,0.22656c0.072,0.12 0.15423,0.21402 0.24023,0.29102l7.56055,5.20117l-7.4375,0.00586l-6.44727,-4.87305c-0.385,-0.451 -0.32328,-0.88205 0.38672,-1.24805l5.24024,-2.68555l-10.66602,-0.01758l-5.07617,-3.17578zM7.53125,15.39453c-0.078,0.248 -0.02381,0.5515 0.11719,0.6875c0.115,0.11 0.2308,0.20047 0.3418,0.23047l4.48828,1.19727l0.12891,0.09766l-10.18945,-0.00391l-1.50391,-1.06836c-0.219,-0.273 -0.33677,-0.4462 -0.13477,-0.7832l0.30664,-0.51562l3.90039,-4.98047l5.44727,-0.02734z" id="strokeMainSVG" fill="#dddddd" stroke="#dddddd" stroke-linejoin="round"></path><g transform="scale(10.66667,10.66667)" fill="#000000" stroke="none" stroke-linejoin="miter"><path d="M0,6l5.07617,3.17578l10.66602,0.01758l-5.24023,2.68555c-0.71,0.366 -0.77172,0.79705 -0.38672,1.24805l6.44727,4.87305l7.4375,-0.00586l-7.56055,-5.20117c-0.086,-0.077 -0.16823,-0.17102 -0.24023,-0.29102c-0.032,-0.052 -0.02928,-0.20056 0.01172,-0.22656c1.653,-1.036 3.334,-1.94016 5,-2.91016c0.141,-0.082 0.12984,-0.74509 -0.03516,-0.87109l-3.24414,-2.49414zM10.43359,10.22852l-5.44727,0.02734l-3.90039,4.98047l-0.30664,0.51563c-0.202,0.337 -0.08423,0.5102 0.13477,0.7832l1.50391,1.06836l10.18945,0.00391l-0.12891,-0.09766l-4.48828,-1.19727c-0.111,-0.03 -0.2268,-0.12047 -0.3418,-0.23047c-0.141,-0.136 -0.19519,-0.4395 -0.11719,-0.6875z"></path></g></g></svg>